<?xml version="1.0" standalone="no"?>
<!DOCTYPE svg PUBLIC "-//W3C//DTD SVG 1.1//EN" "http://www.w3.org/Graphics/SVG/1.1/DTD/svg11.dtd" >
<svg xmlns="http://www.w3.org/2000/svg" xmlns:xlink="http://www.w3.org/1999/xlink" version="1.1">
<metadata>
Created by FontForge 20170924 at Sat Feb  8 23:46:49 2003
 By www-data
(c) Jakob Fischer at www.pizzadude.dk - DO NOT DISTRIBUTE WITHOUT AUTHOR'S PERMISSION!
</metadata>
<defs>
<font id="Onceinawhile" horiz-adv-x="500" >
  <font-face 
    font-family="Once in a while"
    font-weight="400"
    font-stretch="normal"
    units-per-em="1000"
    panose-1="0 0 4 0 0 0 0 0 0 0"
    ascent="800"
    descent="-200"
    x-height="793"
    cap-height="800"
    bbox="6 -194 1214 800"
    underline-thickness="20"
    underline-position="-143"
    unicode-range="U+0020-007A"
  />
<missing-glyph 
d="M63 0v800h375v-800h-375zM125 63h250v675h-250v-675z" />
    <glyph glyph-name=".notdef" 
d="M63 0v800h375v-800h-375zM125 63h250v675h-250v-675z" />
    <glyph glyph-name=".null" horiz-adv-x="0" 
 />
    <glyph glyph-name="nonmarkingreturn" 
 />
    <glyph glyph-name="space" unicode=" " 
 />
    <glyph glyph-name="A" unicode="A" horiz-adv-x="872" 
d="M861 -58q0 -6 -7.5 -14.5t-13.5 -10.5q-51 -3 -90 -21l-81 -38q-38 -18 -66 -47q-11 -5 -16 -5q-29 0 -37 8q-19 63 -50 191q-11 59 -27 99q-38 1 -73 -14q-7 -3 -10 -18q-4 -20 -6 -25q-36 -81 -50 -129q-3 -23 -12 -62q-2 -6 -12 -11.5t-17 -5.5q-2 0 -28 11
q-31 13 -34 14q-84 20 -90 20q-4 0 -3.5 -1.5t-3.5 -1.5q-24 0 -90 21q-31 10 -31 27q0 3 46 99q26 56 53 111q13 40 54 155q15 35 56 133l57 138q34 82 60 130q5 14 15 40q13 32 28 32q4 0 5 -1.5t2 -1.5q0 6 4 19q18 13 28 13q58 0 95 -8q12 -3 78 -21q47 -13 51 -13
q5 0 15.5 2t15.5 2q13 0 28 -17q10 -115 28 -240q4 -28 46 -223q27 -126 36 -201q7 -58 25 -97q1 -4 11.5 -17t10.5 -21zM786 -47q-8 28 -22 82q-23 159 -44 249q-28 124 -49 223q-5 60 -28 205q-39 6 -117 21q-8 5 -23 11q-13 0 -57 3q-26 2 -41 7q-3 -16 -11 -43
q-52 -120 -173 -420q-18 -58 -47 -143q-7 -19 -96 -205q25 -11 91 -23q83 -16 98 -20q3 3 10 14l71 191q-1 8 2 22q22 16 32 16q3 0 8 -1.5t8 -1.5q16 0 50 13t50 13q22 0 28 -25q14 -56 36 -171q8 -64 35 -99q62 28 189 82z" />
    <glyph glyph-name="B" unicode="B" horiz-adv-x="756" 
d="M747 86q0 -142 -83 -185q-55 -28 -160 -54q-40 -10 -120 -24q-67 -12 -79 -12q-7 0 -19.5 1t-19.5 1q-23 0 -73 -3l-50 -3q-97 -6 -97 28q0 12 2 47q2 29 1 46q-7 127 -18 298l-12 186v350q20 12 61 29q47 9 117 9q186 0 337 -36q79 -19 144 -67q36 -45 36 -98
q0 -46 -20 -121q-10 -38 -107 -171q0 -6 30 -20q12 -5 36 -17q53 -38 73.5 -78.5t20.5 -105.5zM680 77q0 62 -17 95q-20 37 -73 64q-21 10 -82 40q-6 4 -6 16q0 15 14 27q57 50 93 124q38 78 38 151q0 78 -108 115q-70 24 -147 25q-9 0 -27.5 5t-28.5 5q-3 0 -7 2t-7 2
q-170 0 -205 -5q-4 -1 -15.5 -6t-15.5 -5l-4 -202l15 -323q0 -6 8 -116q9 -125 11 -181q-1 -12 0 -35q23 -12 46 -12q4 0 9 4t9 4q8 0 22.5 -4t22.5 -4l55 2l55 2q13 0 78 13q79 15 121 29l49 16q97 32 97 152z" />
    <glyph glyph-name="C" unicode="C" horiz-adv-x="804" 
d="M796 45q0 -11 -12 -23q-18 -18 -22 -24q-44 -67 -164 -142q-20 -12 -101.5 -30.5t-110.5 -18.5q-12 0 -34.5 3.5t-33.5 3.5t-68 27.5t-72 37.5q-3 5 -11 12q-63 38 -104 122q-35 71 -47 156l-9 63q0 93 76 271q72 169 170 220q111 58 175 68q32 5 165 5q22 0 70.5 -20
t69.5 -20q4 0 3 1.5t4 1.5q14 0 15 -32q0 -9 -2 -15q-21 -14 -49 -54l-47 -68q-23 -62 -53 -62q-14 0 -21 11q-35 57 -100 57q-101 0 -157 -98q-44 -77 -44 -179q0 -47 11 -103t26 -73q8 -10 60 -39q19 -8 51 -8q34 0 64 9q68 20 120 45q37 17 41 17q-7 0 17 -5
q39 -47 109 -92q15 -10 15 -25zM721 35q0 10 -40 40.5t-52 30.5q-4 0 -26 -10q-25 -12 -30 -13q-113 -35 -160 -35q-44 0 -74 15q-90 45 -107 147q-8 48 -8 117q0 171 119 275q17 14 71 25q37 13 67 13q54 0 74 -8q16 -10 49 -26l72 100v11q-61 32 -134 32q-23 0 -129 -8
q-19 -8 -48 -19q-42 -11 -91 -44t-72 -67q-49 -72 -88 -170q-49 -122 -49 -211q0 -35 11 -89q8 -22 21 -61q24 -75 73 -126q25 -26 96 -60q84 -40 127 -40q41 0 92 10q60 11 86 29q22 15 95 68q12 11 32 36q23 29 23 38z" />
    <glyph glyph-name="D" unicode="D" horiz-adv-x="816" 
d="M805 279q0 -76 -25 -160q-13 -43 -54 -95.5t-80 -76.5q-61 -38 -122 -65q-52 -23 -108 -35q-188 -39 -250 -39h-127q-11 11 -12 51l-8 548q0 10 1.5 44.5t1.5 59.5q0 20 -8 133l-6 85q-2 30 5 40q24 27 37 27q36 0 125 -9q26 -9 80 -21q168 -19 280 -67q39 -17 93 -57
q65 -49 83 -86q94 -146 94 -277zM736 311q0 48 -42 135q-32 66 -64 110q-43 59 -148 104q-49 21 -139 43q-29 2 -96 11l-80 16q-40 8 -94 8l11 -197l12 -679q6 0 18.5 -2.5t18.5 -2.5h10q10 0 101 12q105 14 157 24q10 6 27 13q56 13 123 45q7 6 30 20q71 40 111 111
q33 59 44 126v103z" />
    <glyph glyph-name="E" unicode="E" horiz-adv-x="700" 
d="M686 -94q0 -64 -33 -64q-57 0 -73 -2l-96 -12q-12 0 -36 2t-36 2q-44 0 -93 -6q-10 -1 -39 -4q-123 -15 -113 -15h-98q-5 0 -14.5 2.5t-14.5 2.5q-8 6 -14 14q2 -2 2 18v194l-10 228l-4 452q3 6 11 18q18 18 33 18q5 0 16 -3.5t16 -3.5q13 0 59 12q54 13 64 15q14 2 56 5
l273 17q25 2 30 -11q13 -35 28 -99q13 -56 13 -66q0 -31 -32 -31q-6 0 -19 5t-18 5q-13 0 -38 -3.5t-38 -3.5q-6 0 -17 -3.5t-16 -3.5t-16.5 3.5t-17.5 3.5q-27 0 -55 -1l-55 -2q-5 0 -17 -6q7 -19 7 -44v-16q-1 -11 -1 -15q0 -34 35 -36l227 -10q7 0 21.5 1.5t20.5 1.5
q17 0 24 -5q4 -4 7 -16.5t1 -18.5l25 -166q-20 -26 -37 -26q-6 0 -17.5 2t-17.5 2q4 0 -77 -24q-32 -6 -94 -25q-11 -87 -11 -104v-35q2 0 6.5 -1.5t7.5 -1.5q17 0 48.5 11t48.5 11q-8 0 181 -12q1 -32 4 -94zM620 -1q-8 8 -23.5 10t-29.5 4q-24 5 -35 5q-21 0 -62 -5
q-9 -1 -36.5 -8.5t-35.5 -7.5t-20.5 -3.5t-18.5 -3.5q-35 0 -35 39q0 25 11 188q6 6 19 15q34 7 130 28q23 5 86 19v34q-2 15 -15 91q0 9 -33 12q-24 3 -42 2q-6 0 -18 1t-17 1q-44 0 -95 5q-10 2 -30 2h-13q-69 0 -88 23q-1 15 0 71q1 44 -6 69q-12 11 -12 25q0 10 9 22
q3 0 10 7.5t11 7.5q8 0 38 -10h113q9 0 28 -4t28 -4q5 0 13 3.5t12 3.5q28 0 63 5q7 0 12 -8v30q0 17 -22 70q-23 5 -18 5l-257 -14q-19 -1 -152 -33q-1 -9 -1 -22v-207l-11 -250l11 -127v-122q0 -32 8 -108q25 -4 78 -4l204 25q-7 0 55 -1q67 -1 79 0q20 2 103 12
q2 52 5 107z" />
    <glyph glyph-name="F" unicode="F" horiz-adv-x="596" 
d="M583 484q0 -8 -13.5 -18.5t-21.5 -10.5q-4 0 -12 3t-11 3q-52 2 -104 11q-40 7 -106 7q-46 0 -54 -6q4 -28 11 -82q2 -14 4 -21q7 -25 59 -33q13 -2 74 -5q34 -6 38 -6q3 0 9 2t9 2q5 0 18.5 -8t16.5 -13v-124q-6 -10 -45 -13q-28 -2 -52 -6q-5 -1 -20.5 -6.5t-19.5 -5.5
q-3 0 -6.5 2t-5.5 2q-34 0 -43 -6q-13 -9 -13 -41q0 -4 8 -69q10 -78 12 -108q1 -7 4 -43q0 -1 4.5 -11.5t4.5 -14.5q0 -22 -22 -22q-2 -1 -9 -6q-3 0 -8.5 1.5t-8.5 1.5t-10 -2t-11.5 -2t-15.5 -3t-16 -3q-68 0 -80 -1t-45.5 -11.5t-45.5 -10.5q-8 0 -16.5 11.5t-7.5 19.5
l5 66q-1 28 -6 86l-5 57v178q0 27 -1 55l-2 55v142q0 48 -2 89q-1 17 -4 66q0 8 -3.5 24.5t-3.5 24.5q0 5 6.5 12t11.5 7q4 0 6 -3q2 4 -1 12t-3 10q0 26 61 29q39 2 50 2l167 23q29 4 121 4q20 0 58 9.5t58 9.5q6 0 16 -6.5t10 -11.5q3 -52 3 -122v-152q0 -3 4.5 -10
t4.5 -10zM516 611q0 85 -7 132q-92 -3 -206 -14q-39 -6 -149 -21q-28 -4 -84 -18l9 -160v-245l18 -422l161 17v44l-30 222q1 21 15.5 39.5t34.5 18.5q3 0 11 -6q4 0 13 1.5t13 1.5h44q37 9 74 17q5 22 4 58q-45 21 -167 21q-29 0 -44 15q-2 15 -12 92q-1 8 -11 51
q-8 35 -8 45q0 8 12 20t20 12q4 0 10.5 -3.5t9.5 -3.5h122q12 -1 57 -7q55 -7 87 -9q3 39 3 102z" />
    <glyph glyph-name="G" unicode="G" horiz-adv-x="836" 
d="M822 -2q0 -9 -9 -15q-17 -8 -32 -19q-3 -3 -8 -11q-13 -1 -63 -73q-4 -12 -15 -36q-11 -17 -30 -19q-31 0 -95 -3q-45 -9 -51 -9q-10 0 -28 -1.5t-27 -1.5q-59 0 -66 1q-36 5 -86 13q-18 3 -80 38q-78 44 -138 134q-56 84 -77 178q-7 31 -7 93q0 65 37 196q34 121 50 138
l33 15q8 4 36 38q52 51 116 91q83 52 137 52q109 0 247 -35q9 0 23 -3q24 -14 24 -30q0 -4 -12 -31q-8 -18 -16.5 -37.5t-27.5 -64.5q-2 -13 -8 -39q-2 -4 -10 -11q-5 -1 -10 -1q-11 0 -30 10q-22 11 -30 13q-18 4 -94 4q-47 0 -76 -21q-57 -42 -78 -95q-17 -45 -17 -123
q0 -187 78 -234q30 -18 57 -24q2 0 60 -8q13 24 16 124q-5 5 -19 7q-70 11 -87 11q-5 0 -17 -5t-17 -5q-4 0 -11 4t-9 4q-9 10 -9 19q10 46 15 87q4 31 1 59q-4 42 -5 36q12 16 36 16q3 0 10.5 -3.5t12.5 -3.5q-1 0 78 5l79 5q8 0 61 -3l61 -4q8 -1 27 3t27 4q17 0 32 -21
q5 -53 16 -205q1 -31 6 -119q1 -13 10 -42.5t9 -41.5zM752 5v15q0 21 -5.5 59.5t-5.5 57.5q-1 7 -3 54q-4 86 -6 89q-4 52 -14 90q-2 3 -6 6q-15 -1 -59 2l-44 3q-23 2 -46 2q-68 0 -144 -16q1 -9 -6 -111q51 -8 152 -25q12 -16 12 -23l-6 -55q-6 -55 -6 -84q0 4 9 -16
q0 -8 -4 -23q-9 -16 -47 -16q-11 0 -37 5q-32 6 -39 7q-39 5 -72 16q-66 22 -100 98q-26 58 -25 120q0 17 -1 35l-2 28q-2 30 6 89q3 22 12 62q54 148 222 148q7 0 6 -6q12 0 35 -4t35 -4q25 0 33 -3q27 60 47 115q-127 34 -155 34q-38 0 -84 -6q-32 -4 -75 -34
q-105 -72 -180 -149q-10 -10 -16 -24q-17 -40 -38 -125q-26 -106 -26 -167q0 -33 4 -58q8 -25 17 -53q33 -105 114 -187q91 -92 192 -92q-1 0 19.5 -1t44.5 -1l63 -1q5 0 14 1.5t14 1.5q21 0 92 18q17 25 65 86q2 7 8 18q21 21 36 24z" />
    <glyph glyph-name="H" unicode="H" horiz-adv-x="796" 
d="M780 -125q0 -12 -11.5 -22.5t-23.5 -10.5q-4 0 -17 6t-19 6q-53 3 -168 13q-9 1 -21 14q7 98 5 140q-5 102 -5 105v41q0 36 -12.5 48.5t-48.5 15.5q-17 1 -60 4q-6 -6 -5 -26l21 -318q2 -32 -44 -32q-4 0 -13 2t-13 2q-10 -1 -172 -24q-13 -2 -64 -14q-46 -11 -58 -11
q-20 0 -23 26v122q14 112 14 171v97l3 206q1 60 -9 111q-3 18 -7 94q-2 39 -6 80q0 3 -6.5 9t-6.5 11q0 14 12 16q97 13 188 30l47 9q11 -11 13 -15q2 -9 2 -45v-92q0 -48 11 -177q1 -7 31 -11q8 -1 12 -1h10q-1 0 19 1t44 1l63 1q19 0 21 9q17 78 28 202q-1 16 -1 46
q14 19 32 19q3 0 5 -2t5 -2t94 29q4 1 18 10.5t19 9.5q-3 0 23 -5q8 -5 14 -14q12 -95 12 -118v-144l34 -404v-108q0 -19 7 -55.5t7 -55.5zM714 -96v13q0 13 -3.5 38t-3.5 38v94l-35 394v84q0 68 -11 151l-50 -14q-49 -14 -49 -46v-25q0 -13 -7 -66q-1 -7 -11 -70
q1 -27 -2 -76q-17 -13 -26 -13q-14 0 -42 3.5t-42 3.5q-20 0 -83 -3l-84 -4q-14 -1 -30 9q-19 11 -18 24q1 5 5 14q-6 103 -14 291l-121 -22l23 -264l-19 -584l257 35v81q0 10 -3.5 31t-3.5 31v92q0 13 -2 39.5t-2 39.5q-1 5 -7 21t-6 19q0 12 12 20t25 8q4 0 15.5 -4.5
t15.5 -4.5q49 -7 136 -18q14 0 37 -5q4 -3 7 -43l10 -119v-86q0 -15 2 -44t2 -44q44 -18 50 -18q77 0 78 -1z" />
    <glyph glyph-name="I" unicode="I" horiz-adv-x="328" 
d="M304 -102q0 -13 -9 -26.5t-21 -13.5h-44l-183 -51q-28 4 -33 20v569q0 -13 3.5 41t2.5 68q-3 32 0 79q5 81 3 109q-4 12 -4 22q0 20 34 33q34 9 46 13l73 24q3 0 7.5 -1.5t7.5 -1.5t19 9t20 9q26 0 31 -23q2 -7 1 -48q0 -18 1 -45l2 -45l7 -417q2 -27 6 -98
q5 -102 17 -181q1 -6 7 -22.5t6 -22.5zM228 -91l-18 201v91q0 13 -7 94l-8 93v350q-2 0 -5.5 2t-6.5 2q-13 0 -92 -30l-15 -396v-430q0 -16 13 -21q23 6 62 19q0 10 12 10q5 0 4 -1.5t3 -1.5q7 0 28.5 8.5t29.5 9.5z" />
    <glyph glyph-name="J" unicode="J" horiz-adv-x="712" 
d="M687 217q3 -108 -36 -228q-14 -42 -52 -84q-8 -9 -58 -40q-13 -8 -49 -29q-56 -29 -86 -29q18 0 -18 2.5t-60 3.5q-12 0 -41 1q-47 3 -99 48q-2 2 -79 80q-102 104 -102 127q10 32 15 35q33 19 69 44q12 8 52 41q32 32 52 32q4 0 9 -1q11 -4 19 -46q4 -20 21 -56
q13 -27 21 -40q37 -59 87 -59h23q13 2 23 16q8 11 17 62q15 84 15 156q0 30 -3 108q-4 20 -22 121q-21 115 -31 149q-2 8 -18 49q-12 32 -12 35q12 18 20 23.5t28 5.5q3 0 9.5 -1.5t9.5 -1.5q13 0 91 18q73 17 96 24q26 13 39 13q27 0 32 -47q0 -51 1 -69q3 -35 8 -135
q1 -52 5 -201zM625 201l-7 333l-18 200l-176 -42v-15q0 -5 7 -23q8 -21 9 -26q13 -63 41 -212q9 -48 9 -139q0 -66 -10 -150q-6 -53 -13 -77q-14 -51 -39 -65q-39 -22 -69 -22q-20 0 -56 10.5t-48 21.5q-53 50 -90 149q-32 -25 -89 -71q20 -29 54 -74q20 -26 60 -56
q28 -28 46 -45q38 -36 63 -36h123q11 0 53 22t54 32q44 38 56 73q42 123 40 212z" />
    <glyph glyph-name="K" unicode="K" horiz-adv-x="788" 
d="M775 47q0 -15 -18 -25l-32 -13q-90 -61 -123 -110q-10 -15 -28 -15q-5 0 -14 4t-11 4q-50 73 -77 107q-55 70 -105 106q-2 -5 -2 -30q0 -10 15 -171q0 -5 6.5 -18.5t6.5 -17.5q0 -13 -14.5 -26.5t-27.5 -13.5q-4 0 -15 6t-15 7q-7 1 -114 1q-16 0 -95 -14l-79 -14h-15
q-1 4 -6 14.5t-5 17.5q0 -13 22 194l22 207q6 53 14 232q1 22 14 172q5 58 3 81q4 5 10 13q-1 3 -1 7t1 8q16 8 47 8q41 0 48 1q14 5 42 10q5 4 14 9q7 1 40 5q4 -4 10 -12q2 -15 2 -52t-2 -96q1 -1 1 -86q63 61 119 114q118 111 150 111q10 0 32 -22q29 -28 53 -44l16 -4
q13 -2 23 -13q4 -4 4 -17q0 -28 -203 -305q0 -5 35 -38l57 -54q35 -34 109 -121q9 -11 53 -63q33 -39 33 -44zM691 51q-87 122 -220 248q-61 58 -61 60q0 -3 5 14q50 51 145 185q42 59 54 101l-62 43q-14 0 -105 -82q-66 -60 -91 -85q-29 -29 -57 -62q-2 -12 -10 -27
q-23 -11 -40 -11q-9 0 -18.5 11.5t-9.5 21.5q0 13 4 39t4 38q4 164 2 195q-38 -11 -76 -11l-77 -855q72 8 241 18q-8 79 -22 236q0 13 -4 36q0 2 -4.5 8t-4.5 10q0 15 14.5 27t29.5 12q10 0 62 -53q14 -15 53 -55q12 -8 31 -25q36 -48 110 -130q19 14 57 44q33 26 50 49z
" />
    <glyph glyph-name="L" unicode="L" horiz-adv-x="652" 
d="M632 -78q-16 -11 -35 -11l-21 2q-12 1 -20 0q-20 -3 -90 -18l-60 -13q-10 0 -29 -3.5t-29 -3.5l-303 -64q-34 10 -31 23l18 562q0 14 -1 48l-2 47v92q0 64 -2 108q0 8 -4.5 25.5t-4.5 26.5q0 10 12 23t22 13q4 0 14 -4t14 -4q27 0 79.5 14.5t79.5 14.5q22 0 25 -38
q0 -6 -6 -14q-7 -97 -7 -207v-8q-1 -8 -1 -13v-20q0 5 1 -30q0 -43 1 -98l2 -170q0 -7 3 -36q3 -24 1 -36q-1 -6 5 -12l149 14q98 0 125 8q21 6 24 6q9 0 19 -8.5t11 -17.5q9 -36 28 -132q0 -4 6.5 -17.5t6.5 -18.5v-30zM557 -39v13q0 34 -29 111q-33 -5 -86 -6l-87 -2
q-15 0 -83 -11l-58 -9q-8 0 -28 20v543q0 12 4 71q3 43 -5 52q-61 -6 -95 -15l3 -298l-10 -558h40l190 46q109 9 244 43z" />
    <glyph glyph-name="M" unicode="M" horiz-adv-x="1136" 
d="M1110 745q0 -6 -3.5 -17.5t-3.5 -17.5v-114q0 -24 -7 -67q-9 -52 -10 -68q-14 -162 -20 -337q-1 -39 -11 -251q0 -8 -11 -22q-4 0 -12.5 -2.5t-12.5 -2.5q-2 0 -6 2t-6 2q-16 0 -66 -11l-27 -6q-22 -5 -44 -16q-12 -6 -19 -6q-3 0 -38 15q-9 43 -25 124q-6 73 -32 230
q-1 0 -4 -3q-13 -37 -31 -108q-19 -74 -31 -108q-8 -16 -19 -50q0 -15 -2 -42q-5 -19 -25 -19q-5 0 -13 -3.5t-12 -3.5q-3 0 -8.5 3.5t-9.5 3.5q-28 0 -83.5 -12.5t-83.5 -12.5q-26 0 -32 19q-66 203 -144 350l8 -252q-2 -10 -6 -34q-2 -13 3 -53q1 -8 -3 -25q-4 -5 -17 -11
q-21 -5 -27 -5q-4 0 -16 4.5t-18 4.5q-69 9 -104 9q-4 0 -12.5 -2t-12.5 -2q-53 0 -46 82l14 165v85l14 312v187q0 41 12 79q76 2 180 2q5 0 18 -5.5t19 -5.5q3 0 8 2t8 2q26 0 34 -16q8 -23 27 -71q32 -63 150 -225q20 70 111 314q0 12 5 39q2 5 22 21q4 1 15 1
q-40 0 61 -6l127 -7q62 -1 124 1q30 1 60 0l59 -2q22 -3 26 -9q9 -35 9 -28zM1039 628q-1 48 -1 104h-238q-6 0 -19.5 4t-19.5 4q-59 0 -83 3q-11 -13 -20 -40q-3 -11 -14 -39q-84 -196 -101 -305q1 -10 -1 -24q-23 -28 -28 -28l-3 2q-4 2 -7 2q-25 0 -35 20q-24 49 -75 122
l-85 123q-18 39 -45 85q-11 19 -21 21q-53 12 -67 12q-9 0 -27 -5.5t-27 -5.5q-8 0 -22 7l-26 -739q-1 -33 1 -44q6 -29 33 -29q5 0 14.5 -1.5t14.5 -1.5h64l-4 6q1 37 2 98q4 24 3 41l-18 291q-1 13 12.5 24t26.5 11q14 0 38 -20q1 -8 3 -18q84 -150 111 -213
q34 -81 90 -210q47 3 139 18q34 100 44 136q40 146 70 212q5 22 9 43q10 34 35 34q31 0 35 -12q18 -77 37 -213q3 -29 11 -110q4 -36 28 -115q82 15 115 25q9 108 13 197q2 81 14 294q7 62 24 234z" />
    <glyph glyph-name="N" unicode="N" horiz-adv-x="928" 
d="M905 620l-17 -248l-5 -219l12 -261q-29 -1 -82 -9q-12 -4 -97 -46q-16 -10 -46 -29q-2 -1 -17 -1h-22q-5 0 -11 8q-14 36 -67 93q-23 25 -83 89q-22 24 -68 86q-42 56 -71 84q-6 -33 -6 -86q0 -34 25 -185q10 -20 10 -23q0 -10 -8 -19t-18 -9l-29 5q-31 5 -48 5
q-31 -1 -61 0l-42 1q-49 1 -74 -13q-2 -1 -17 -1q-40 0 -40 28q0 6 5 12q-16 12 -16 29q0 6 2.5 17.5t2.5 17.5v303q0 18 -5 54.5t-5 54.5v280q11 11 17 15q12 10 19 10l189 95q17 2 32 -16q72 -86 93 -120q102 -161 175 -281q28 -46 60 -87q5 19 8 97q1 21 7 71q5 46 5 72
v118q0 18 -5.5 54.5t-5.5 54.5q0 11 15 22t27 11q6 0 16.5 -1.5t16.5 -1.5q34 0 115 18q8 2 38.5 14.5t34.5 12.5h8q12 0 24 -12q3 -8 9 -28q6 -49 0 -136zM843 650q1 18 -8 80q-40 -10 -167 -36q0 -2 5 -99q2 -33 -8 -161q-2 -38 -11 -221q-1 -23 1 -37q6 -36 5 -38
q-9 -18 -18 -20h-14q-23 0 -33 17q-70 120 -156 258q-26 38 -97 147q-64 98 -110 150q-32 -9 -75 -34q-15 -9 -79 -46q-1 -58 -8 -102v-185q0 -10 3.5 -28.5t3.5 -28.5v-368h201l9 8l-25 176v167q16 23 26 23q11 0 38 -5q39 -54 157 -204q46 -51 176 -197q62 27 169 68
l4 528z" />
    <glyph glyph-name="O" unicode="O" horiz-adv-x="876" 
d="M858 364q0 -230 -105 -373q-20 -17 -55 -50q-18 -22 -60 -60q-56 -38 -151 -58q-7 -2 -99 -13q-30 -3 -44 -3q-4 0 -17.5 8.5t-16.5 8.5q-5 0 -5 -3v0q0 -4 -4 -4q-3 0 -9.5 7t-11.5 7q-4 0 -3 -1.5t-4 -1.5q-11 0 -59.5 26.5t-57.5 36.5q-89 98 -120 177q-26 66 -26 177
q0 113 18 185q25 100 96 186q2 7 9 20q5 2 11 7q17 32 51 62q28 25 90 62q9 2 28 6q11 6 34 15q29 8 73 8q50 0 118 -18q6 -2 70 -24q8 -6 24 -16q76 -34 138 -112q5 -13 16 -34q25 -32 48.5 -108t23.5 -120zM796 366q0 104 -81 243q-3 2 -9 7q-20 37 -78 68q-20 11 -107 45
q-23 9 -106 9q-11 0 -58.5 -13.5t-61.5 -19.5q-54 -24 -116 -111q-66 -93 -89 -171q-21 -71 -21 -189q0 -10 5 -55q6 -55 13 -77q5 -17 21 -44q17 -30 22 -42q22 -53 116 -121q15 -11 50 -17q6 -1 29 -8.5t28 -7.5h50q-8 0 73 16q60 12 80 23q111 62 161 163q12 19 29 49
q50 139 50 253z" />
    <glyph glyph-name="P" unicode="P" horiz-adv-x="804" 
d="M786 438q0 -123 -137 -205q-65 -39 -145 -63q-8 -2 -127 -36q10 -96 36 -286q-10 -12 -33 -12q1 0 -49 2l-50 2q-16 1 -119 -17l-37 -7q-7 -1 -15.5 -3t-4.5 -2q-3 0 -6 3.5t-7 3.5t-11.5 2t-11.5 2l-36 501v83q0 3 -4 57l-5 67l-7 188q0 6 -5 19.5t-5 18.5t4 12l4 6
q23 0 67.5 6t67.5 6q10 0 31 3.5t31 3.5q98 0 210 -21q18 1 55 -2q21 -5 57.5 -24t54.5 -25q70 -22 127 -90q26 -32 48 -92t22 -101zM732 430q0 50 -45 143q-26 54 -68 77q-28 11 -80 35q-10 7 -26 16q-71 23 -66 23q-7 0 -21.5 -2t-21.5 -2q-14 0 -45.5 11t-45.5 11
q-10 0 -32 -1.5t-33 -1.5q-79 1 -186 -19v-16q0 -12 5 -58q3 -24 8 -80l42 -677q1 -13 11 -24l223 23q-6 67 -23 215q-1 8 -10.5 29.5t-9.5 24.5q0 15 20 26q8 4 29 16q7 -8 13 -8q49 0 212 63q7 6 22 16q40 17 82 67q46 54 46 93z" />
    <glyph glyph-name="Q" unicode="Q" horiz-adv-x="836" 
d="M820 361q0 -7 -4.5 -23.5t-4.5 -24.5q-2 -37 -34 -103q-10 -13 -36 -49q-34 -47 -34 -64q0 -8 27.5 -49.5t37 -50.5t9.5 -20q0 -14 -19 -24q-12 -5 -23 -9q-31 -20 -86 -66l-76 -64q-9 -8 -30 -8q-9 0 -69 64.5t-63 64.5q-6 -2 -36.5 -10.5t-81.5 -8.5h-51q-9 0 -44 19
q-31 17 -44 27q-95 72 -125 190q-20 79 -20 119v83q0 9 4 26t4 26q1 110 86 222q79 104 161 128q9 1 37 14.5t33 13.5t18 -3.5t19 -3.5q18 0 53.5 8t53.5 8q21 0 83 -17q9 -2 67 -33q18 -10 71 -38q75 -56 90 -102q27 -82 27 -113v-129zM762 427q0 105 -34 176q-9 11 -22 28
q-22 37 -82 66q-24 11 -88 40q-6 3 -39 6q-5 0 -16.5 4.5t-15.5 4.5q-18 0 -51.5 -11.5t-51.5 -11.5q-5 0 -15.5 6.5t-13.5 6.5q-10 0 -54.5 -26t-58.5 -37q-105 -85 -134 -221q-15 -71 -15 -139q0 -181 86 -281q23 -27 53 -54q52 -30 81 -30h51q17 0 55.5 14.5t55.5 14.5
q10 0 14 -4q5 -10 16 -27q17 -19 65 -73q8 -9 18 -8l141 103v11q-24 41 -32 51q-21 29 -42 42q2 9 7 22q83 125 97 158q25 59 25 169z" />
    <glyph glyph-name="R" unicode="R" horiz-adv-x="844" 
d="M826 22q0 -2 -54 -53q-61 -57 -88 -90q-14 -25 -30 -50q-4 -6 -18 -14t-20 -8q-20 0 -25 5q-23 23 -56 74q-44 68 -100 157q-37 73 -100 178q-6 10 -49 10q-4 0 -4.5 -2t-1.5 -2q-5 -2 -5 -13q0 -10 5 -28.5t5 -27.5v-118q0 -15 -2 -48q-1 -19 -2 -48q-2 -57 -3 -46
q10 -19 10 -23q0 -8 -13 -22t-21 -14q-4 1 -40 9q-13 3 -24 4q-56 6 -110 6h-37q-36 4 -36 24q0 10 6 33.5t7 32.5l16 214v130l1 20q2 24 3 49l3 67q1 6 6 31l7 37q17 90 17 192v11q-1 11 -1 22v39q15 19 42 19q2 -1 9 -7q-8 -1 89 -1q4 0 9 3t8 3q36 4 86 7q15 1 57 7
q36 5 57 5q14 0 40.5 -3t37.5 -3q72 -3 125 -16q8 -5 25 -12q90 -22 142 -98q5 -7 14 -35t9 -37q0 -43 -18.5 -102t-43.5 -91q-39 -49 -95 -88q-11 -7 -42 -29q4 -22 62 -91q37 -42 73 -84q68 -80 68 -85zM751 578q0 94 -122 139q-89 33 -211 33l-282 -29l-36 -449v-132
l-18 -212q-1 -17 12 -20q54 -12 104 -12l22 -2q-7 4 -6 29l7 149q3 60 -7 119l-8 48q0 20 4 28q8 16 34 21l8 7q13 0 16 -1q31 -17 58 -17q9 0 26.5 3.5t26.5 3.5q20 0 31 -63q68 -138 200 -324q6 -8 15 -8l115 126q-48 80 -176 231q-8 4 -19 12q-8 13 -8 21q0 14 42 35
q60 30 106 83q52 61 56 120q1 9 5.5 29.5t4.5 31.5z" />
    <glyph glyph-name="S" unicode="S" horiz-adv-x="736" 
d="M718 128q0 -110 -70 -192q-68 -78 -177 -105q-84 -21 -88 -21h-77q-27 0 -76 18t-68 35q-83 77 -100 113l-55 152q55 36 156 117q8 8 33 8q13 0 17 -11l8 -22q7 -19 29.5 -46.5t39.5 -36.5q49 -26 100 -52q9 7 23 22q14 21 14 39q0 15 -11 30q-33 46 -140 102
q-55 15 -109 45q-40 22 -59 44q-37 42 -37 98q0 156 159 270q85 61 147 61q21 0 41 -1l40 -2q57 -3 91 -11q6 -1 31.5 -12.5t29.5 -11.5q53 0 53 -29q0 -5 -22 -39l-29 -45q-4 -16 -15 -42q-9 -14 -28 -14q-3 0 -38.5 23t-77.5 23q-88 0 -137 -87q-15 -26 -15 -33
q0 -37 38 -68q34 -27 74 -34q3 -1 94 -32q64 -22 91 -42q49 -36 64 -64q56 -103 56 -147zM657 109q0 27 -31 98q-12 20 -20 35q-35 67 -193 123q-25 9 -97 34q-27 15 -47 41q-33 44 -33 77q0 7 14 27q7 9 24 33q34 51 65 70q9 5 49 16t50 11q8 0 46 -3q10 -1 33 -9t29 -8h10
q10 16 33 61l-68 24q-39 14 -79 13q9 0 -68 2q-25 1 -76 -28q-169 -95 -169 -251q0 -93 95 -128q8 -3 91 -30q21 -10 48 -28l42 -29q87 -49 87 -106q0 -43 -34.5 -77t-78.5 -34q-16 0 -64 31q-51 22 -73 36q-41 26 -52 58q-3 6 -17 20q-17 -8 -50 -31q-45 -31 -45 -48
q0 -9 6 -23q8 -18 9 -23q16 -66 73 -126q60 -65 123 -73q5 -1 17.5 -5t18.5 -4h45q8 0 22.5 1.5t21.5 1.5t25 6q23 8 26 9q60 15 116 63q32 27 54 78t22 95z" />
    <glyph glyph-name="T" unicode="T" horiz-adv-x="736" 
d="M713 775q-24 -83 -37 -209q5 -18 5 -48q-5 -18 -30 -24q-9 -2 -41 -6q-74 -28 -116 -37q-6 -4 -7 -8q-6 -22 -6 -37q0 -20 7 -59.5t7 -59.5v-155q0 -14 3.5 -40.5t3.5 -40.5q0 -4 -6 -66q-7 -74 -8 -101q0 -2 2 -7l2 -6q3 -10 5 -14q-9 -33 -47 -33q-5 0 -25 2
q-29 3 -38 1q-5 0 -17 -3.5t-17 -3.5l-10 4q-17 0 -51.5 -7t-51.5 -7h-13q-14 0 -32 18q1 13 6 35l-3 447l10 152q1 15 0 20q-2 10 -19 12q-53 1 -150 13q-6 2 -15.5 13t-9.5 17q0 13 8 45q10 41 11 47q3 16 10 63q10 84 27 84q16 0 47.5 -7t47.5 -7q8 0 25 3.5t25 3.5h223
q8 0 22.5 -1.5t22.5 -1.5l201 24q17 0 29 -15zM638 736l-14 3q-34 -3 -93 -8l-65 -6q-20 0 -50 1q-54 2 -73 1q-6 0 -19 -3t-20 -3q-5 0 -14.5 3.5t-13.5 3.5q-13 0 -40 -5t-40 -5q-10 0 -29 1.5t-29 1.5q-23 0 -35 -11l-17 -155q1 0 5 1t6 1q24 0 70 -11.5t70 -11.5
q3 0 8 3t9 3q26 0 26 -25t-7 -70q-7 -49 -8 -70l-6 -114l8 -396q82 0 159 11l9 170l-5 220q-1 35 -8 116q-1 11 -9 40q-7 26 -7 38q0 9 23 28q101 16 177 50z" />
    <glyph glyph-name="U" unicode="U" horiz-adv-x="828" 
d="M812 636q0 -18 -4.5 -51t-4.5 -49q-6 -199 -56 -382q-8 -17 -28 -68q-14 -38 -29 -78t-39 -70q-2 -10 -12 -26q-17 -16 -63 -50q-7 -5 -70 -29q-69 -26 -87 -26h-33q2 0 -52 9q-72 2 -146 64q-63 53 -103 126q-1 1 -12 33q-19 54 -32 101q-4 32 -7 131l-10 379
q-15 10 -17 28l99 55q9 0 26.5 -3.5t26.5 -3.5q14 0 60 17t60 17q7 0 18 -8q0 -1 3 -65q2 -42 2 -66q2 -2 2 -30t-2 -81l4 -40q2 -38 8 -137q19 -275 144 -275h11q19 0 47 47q10 16 32 103q16 60 33 188q8 61 13 104v130q0 12 -7 42t-7 46q0 15 15 20q9 1 30 6q50 12 85 34
q24 15 40 15q13 0 30 -15q5 -7 6 -13q0 -7 -3 -20q7 -5 18 -17q11 -32 11 -92zM748 636q0 34 -8 72q-2 10 -10 18q-28 -9 -79 -30q0 -11 3.5 -31.5t3.5 -31.5v-133q0 -17 -15 -131q-2 -21 -9 -75q-4 -30 -26 -116q-37 -144 -117 -168q-5 -1 -16 -5q-74 0 -118 33
q-38 29 -71 100q-22 49 -27 90q-10 91 -16 236l-9 235q-13 -3 -49 -16q-31 -11 -36 -11q-3 0 -9.5 3.5t-10.5 3.5q-51 0 -48 -69l13 -261q2 -50 8 -172q6 -24 14 -67q3 -55 76 -145q82 -101 160 -101q11 0 33.5 -3.5t33.5 -3.5q60 0 124 49t83 107q13 39 26 73
q65 165 84 440q0 5 7 65z" />
    <glyph glyph-name="V" unicode="V" horiz-adv-x="1016" 
d="M996 758q-2 -5 -46 -96q-23 -46 -74 -157q-26 -64 -101 -244q-17 -41 -188 -383q-7 -15 -40 -15q-10 0 -17.5 8.5t-10.5 8.5q-7 0 -15 -6q-39 -5 -80 -16q-12 -3 -49 -21q-16 -12 -31 -22q-7 -5 -24 -5q-23 0 -36 25q-6 16 -17 47l-59 164q-44 122 -92 271l-67 209
q-42 130 -42 133q0 19 74 85q10 9 28 33q16 -1 50 2q22 -38 59 -116q39 -125 75 -223q9 -24 127 -260q27 38 69 139l125 305q62 151 83 151q12 0 19 -3l7 7q10 -7 38 -7q18 0 164 14q3 0 14 5t15 5q17 0 37 -18q5 -27 5 -20zM909 731l-12 3q-77 -5 -167 -20
q-59 -112 -102 -218q-45 -110 -110 -265q-15 -27 -40 -77q-9 -30 -26 -76q-6 -10 -27 -10q-29 0 -41 24q-3 13 -9 35q-38 83 -91 191q-69 141 -85 195q-8 28 -29 100q-29 96 -47 96q-46 -43 -46 -57q0 -26 43 -144l49 -135q10 -41 74 -227q91 -266 105 -266q4 0 24.5 9.5
t26.5 10.5q55 11 79 17q58 15 67 30q70 116 122 234z" />
    <glyph glyph-name="W" unicode="W" horiz-adv-x="1228" 
d="M1214 763q0 -4 -12 -83q-14 -90 -17 -123q-17 -44 -31 -134q-6 -48 -25 -184q-11 -79 -47 -257q-4 -18 -29 -24q-19 -2 -38 -5q-40 -14 -189 -106q-4 0 -13.5 4t-11.5 4q-60 170 -164 326q-12 -41 -28 -122q0 -55 -5 -164q-1 -6 -10.5 -13.5t-15.5 -7.5q-8 0 -25.5 5
t-25.5 5q-34 0 -274 -52q-7 -2 -31 -13.5t-28 -11.5q-10 0 -29 14l-10 111q-3 31 -22 137q-7 37 -20 110q-27 86 -37 174l-32 124q-31 120 -31 159q0 28 5 36q9 15 68 50q64 38 90 38q16 0 26 -5q48 -104 78 -211l53 -189q1 3 24 109q11 50 52 211q5 9 14 26q37 0 84 21
q19 9 69 33q17 8 29 8q18 0 36 -18q0 -14 33 -83l134 -380h3q30 97 47 175q5 26 22 122q17 91 34 145q6 19 39 19q3 0 10 -1.5t10 -1.5q4 0 14 3t14 3q10 0 55 9q54 11 85 22q4 1 19 11q12 8 19 8q10 0 22.5 -11.5t12.5 -21.5zM1150 729h-14q-6 0 -158 -34q-19 -31 -29 -80
q-4 -24 -17 -87q-26 -123 -48 -198q-9 -31 -29 -113q-2 -45 -3 -50q-6 -29 -31 -29h-17q-13 0 -17 12q-37 119 -90 274q-32 93 -106 279h-11q-12 -7 -71 -33l-24 -10q-16 -7 -19 -15q-27 -62 -49 -161q-8 -36 -32 -164q-11 -59 -11 -97q0 -26 5 -44q1 -16 -20 -28h-9
q-16 3 -35 16l-47 190q-37 148 -47 185q-46 164 -62 164q-39 -20 -50 -27q-32 -20 -39 -36l114 -534l37 -238q21 1 53 7q3 2 7 2l264 51q4 61 15 161q12 51 27 161q-4 10 -8 26q23 26 45 26q11 0 42 -58q18 -34 35 -68q16 -27 60 -104q21 -43 83 -165q79 47 125 69
q26 9 56 26q11 20 24 97q12 71 51 310z" />
    <glyph glyph-name="X" unicode="X" horiz-adv-x="876" 
d="M857 68q0 -12 -5 -17q-56 -46 -125 -157q-5 -9 -15 -36q-2 -6 -15 -12t-20 -6h-16l-224 290q-7 2 -23 -25q-6 -10 -19 -34q-2 -3 -83 -120q-49 -70 -73 -127q-7 -17 -32 -17q-17 0 -23 4q-26 18 -76 37q-57 23 -77 34q-5 1 -14 3l-10 20q0 9 9 18q16 17 20 23
q33 53 128 202q7 11 136 195q-7 11 -43 59q-54 71 -71 95q-89 126 -123 208q11 15 35 34q126 41 170 41q16 0 34 -12q15 -29 91 -116q67 -78 85 -125q56 79 158 232q1 7 5 20q10 18 32 18q15 0 20 -5q67 -65 141 -90q23 -8 23 -30q0 -9 -8 -14q-10 -8 -12 -11
q-26 -45 -55 -90q-21 -30 -74 -108q-55 -81 -55 -97q0 -18 21 -46l100 -131q51 -66 78 -90q5 -8 5 -17zM787 63q0 10 -64 89l-79 97q-50 61 -64 97l203 319q-34 24 -102 65q-94 -131 -167 -251q-4 -13 -15 -33q-8 -9 -26 -9q-28 0 -36 22q-2 16 -8 43q-12 32 -34 67
q-53 68 -99 117q-38 41 -44 41q-14 0 -53 -10.5t-54 -17.5q-11 -5 -15 -14q62 -111 98 -160q29 -39 90 -111q51 -60 55 -66q0 -14 -7 -22q-68 -76 -144 -189q-64 -101 -128 -201q-7 -11 -7 -25q13 -7 49 -23q41 -18 49 -18q7 0 79 108q67 101 83 130q56 105 83 105
q13 0 17 -1q28 -35 144 -195q62 -85 91 -100q14 22 65 89q40 53 40 57z" />
    <glyph glyph-name="Y" unicode="Y" horiz-adv-x="800" 
d="M786 722q0 -2 -35 -59l-98 -160q-22 -36 -55.5 -90t-44.5 -88v-33q0 -14 2 -39q2 -29 2 -39q2 -64 2 -147v-106q0 25 6 -34q7 -62 6 -69q-13 -13 -26 -13q-11 0 -26 4.5t-19 4.5q-17 0 -93 -24l-76 -24q-19 0 -20 15q-4 56 -4 90v210q0 -11 -4.5 44.5t-3.5 70.5
q2 49 -39 96q-55 62 -224 240q-9 5 -22 15q-8 8 -8 18q0 15 20 19q-1 20 24 53l42 46q34 37 47 59q6 0 20.5 2t20.5 2q53 -90 90 -158l47 -86q23 -43 61 -78q13 22 87 143q25 42 39 80q5 17 21 59q21 51 47 51q2 0 27.5 -13t31.5 -15q55 -17 102 -17q25 0 32 3
q21 -25 21 -33zM712 706q-43 7 -60 11q-38 9 -60 22q-29 -68 -66 -138q-21 -34 -63 -106q-33 -57 -49 -105q-2 -3 -7 -9h-31q-17 3 -30 18q2 16 -29 55q-18 22 -39 48q-43 80 -123 218q-16 -13 -45.5 -53.5t-45.5 -50.5q4 -4 158 -147q97 -90 135 -163q17 -32 17 -96
q0 -28 -6.5 -83.5t-6.5 -47.5v-215h20q5 0 16 5.5t14 6.5q36 11 97 20v34q0 3 -10 51l2 4q2 4 2 8v106q0 89 -6 147q2 28 -7 87z" />
    <glyph glyph-name="Z" unicode="Z" horiz-adv-x="672" 
d="M656 562l-289 -396q5 -5 12 -5q-4 0 12 4q58 9 178 19q36 9 31 9q9 0 21 -10t12 -19q0 -17 -8 -74q-5 -36 -21 -141q0 -4 5 -46q1 -8 -13 -20q-8 0 -23.5 -3.5t-22.5 -3.5q-29 -2 -112 -8q-27 -2 -65 -10q3 -6 -4 -6q-4 0 -5 3.5t-5 3.5q-53 0 -157 -20l-135 -26
q-3 0 -9.5 3.5t-9.5 3.5q-5 0 -8 -3l-4 -3q-4 6 -9 17q-3 8 0 27q2 13 3 23v146q0 6 -3.5 17.5t-3.5 17.5q0 4 44 57q18 21 63 77q39 58 124 173q35 38 110 127q-79 14 -90 15h-51q-16 0 -84 -4l-85 -5q-12 -1 -28 7.5t-16 19.5q0 9 5 26.5t6 23.5q3 20 11 85q0 13 1 62
q0 5 9 11.5t15 6.5q5 0 17.5 -5t17.5 -5q3 1 11 6q15 0 200 13q30 2 141 12q44 9 115 19q5 1 19.5 7t18.5 6q29 0 38 -31q-3 -13 -5 -40q4 -40 26 -164zM590 598q0 48 -20 143h-30q-15 0 -46.5 -11.5t-46.5 -11.5l-329 -33q-18 0 -25 7q-18 -123 -17 -130v-11h46l6 -4
l16 1.5t35 2.5l50 3q22 1 54 -1q54 -9 43 -9q15 0 46 3.5t46 3.5q34 0 34 -28q0 -15 -10 -25q-53 -56 -143 -158q-56 -88 -117 -169q-26 -33 -93 -120v-182l198 29q27 3 100 13q64 10 100 10q3 0 10 -1.5t10 -1.5l40 10q4 33 14 98q9 60 9 64v51l-259 -33q-8 0 -17 9t-9 17
q0 15 79 119l80 105q26 34 141 207q5 8 5 33z" />
    <glyph glyph-name="a" unicode="a" horiz-adv-x="872" 
d="M861 -58q0 -6 -7.5 -14.5t-13.5 -10.5q-51 -3 -90 -21l-81 -38q-38 -18 -66 -47q-11 -5 -16 -5q-29 0 -37 8q-19 63 -50 191q-11 59 -27 99q-38 1 -73 -14q-7 -3 -10 -18q-4 -20 -6 -25q-36 -81 -50 -129q-3 -23 -12 -62q-2 -6 -12 -11.5t-17 -5.5q-2 0 -28 11
q-31 13 -34 14q-84 20 -90 20q-4 0 -3.5 -1.5t-3.5 -1.5q-24 0 -90 21q-31 10 -31 27q0 3 46 99q26 56 53 111q13 40 54 155q15 35 56 133l57 138q34 82 60 130q5 14 15 40q13 32 28 32q4 0 5 -1.5t2 -1.5q0 6 4 19q18 13 28 13q58 0 95 -8q12 -3 78 -21q47 -13 51 -13
q5 0 15.5 2t15.5 2q13 0 28 -17q10 -115 28 -240q4 -28 46 -223q27 -126 36 -201q7 -58 25 -97q1 -4 11.5 -17t10.5 -21zM786 -47q-8 28 -22 82q-23 159 -44 249q-28 124 -49 223q-5 60 -28 205q-39 6 -117 21q-8 5 -23 11q-13 0 -57 3q-26 2 -41 7q-3 -16 -11 -43
q-52 -120 -173 -420q-18 -58 -47 -143q-7 -19 -96 -205q25 -11 91 -23q83 -16 98 -20q3 3 10 14l71 191q-1 8 2 22q22 16 32 16q3 0 8 -1.5t8 -1.5q16 0 50 13t50 13q22 0 28 -25q14 -56 36 -171q8 -64 35 -99q62 28 189 82z" />
    <glyph glyph-name="b" unicode="b" horiz-adv-x="756" 
d="M747 86q0 -142 -83 -185q-55 -28 -160 -54q-40 -10 -120 -24q-67 -12 -79 -12q-7 0 -19.5 1t-19.5 1q-23 0 -73 -3l-50 -3q-97 -6 -97 28q0 12 2 47q2 29 1 46q-7 127 -18 298l-12 186v350q20 12 61 29q47 9 117 9q186 0 337 -36q79 -19 144 -67q36 -45 36 -98
q0 -46 -20 -121q-10 -38 -107 -171q0 -6 30 -20q12 -5 36 -17q53 -38 73.5 -78.5t20.5 -105.5zM680 77q0 62 -17 95q-20 37 -73 64q-21 10 -82 40q-6 4 -6 16q0 15 14 27q57 50 93 124q38 78 38 151q0 78 -108 115q-70 24 -147 25q-9 0 -27.5 5t-28.5 5q-3 0 -7 2t-7 2
q-170 0 -205 -5q-4 -1 -15.5 -6t-15.5 -5l-4 -202l15 -323q0 -6 8 -116q9 -125 11 -181q-1 -12 0 -35q23 -12 46 -12q4 0 9 4t9 4q8 0 22.5 -4t22.5 -4l55 2l55 2q13 0 78 13q79 15 121 29l49 16q97 32 97 152z" />
    <glyph glyph-name="c" unicode="c" horiz-adv-x="804" 
d="M796 45q0 -11 -12 -23q-18 -18 -22 -24q-44 -67 -164 -142q-20 -12 -101.5 -30.5t-110.5 -18.5q-12 0 -34.5 3.5t-33.5 3.5t-68 27.5t-72 37.5q-3 5 -11 12q-63 38 -104 122q-35 71 -47 156l-9 63q0 93 76 271q72 169 170 220q111 58 175 68q32 5 165 5q22 0 70.5 -20
t69.5 -20q4 0 3 1.5t4 1.5q14 0 15 -32q0 -9 -2 -15q-21 -14 -49 -54l-47 -68q-23 -62 -53 -62q-14 0 -21 11q-35 57 -100 57q-101 0 -157 -98q-44 -77 -44 -179q0 -47 11 -103t26 -73q8 -10 60 -39q19 -8 51 -8q34 0 64 9q68 20 120 45q37 17 41 17q-7 0 17 -5
q39 -47 109 -92q15 -10 15 -25zM721 35q0 10 -40 40.5t-52 30.5q-4 0 -26 -10q-25 -12 -30 -13q-113 -35 -160 -35q-44 0 -74 15q-90 45 -107 147q-8 48 -8 117q0 171 119 275q17 14 71 25q37 13 67 13q54 0 74 -8q16 -10 49 -26l72 100v11q-61 32 -134 32q-23 0 -129 -8
q-19 -8 -48 -19q-42 -11 -91 -44t-72 -67q-49 -72 -88 -170q-49 -122 -49 -211q0 -35 11 -89q8 -22 21 -61q24 -75 73 -126q25 -26 96 -60q84 -40 127 -40q41 0 92 10q60 11 86 29q22 15 95 68q12 11 32 36q23 29 23 38z" />
    <glyph glyph-name="d" unicode="d" horiz-adv-x="816" 
d="M805 279q0 -76 -25 -160q-13 -43 -54 -95.5t-80 -76.5q-61 -38 -122 -65q-52 -23 -108 -35q-188 -39 -250 -39h-127q-11 11 -12 51l-8 548q0 10 1.5 44.5t1.5 59.5q0 20 -8 133l-6 85q-2 30 5 40q24 27 37 27q36 0 125 -9q26 -9 80 -21q168 -19 280 -67q39 -17 93 -57
q65 -49 83 -86q94 -146 94 -277zM736 311q0 48 -42 135q-32 66 -64 110q-43 59 -148 104q-49 21 -139 43q-29 2 -96 11l-80 16q-40 8 -94 8l11 -197l12 -679q6 0 18.5 -2.5t18.5 -2.5h10q10 0 101 12q105 14 157 24q10 6 27 13q56 13 123 45q7 6 30 20q71 40 111 111
q33 59 44 126v103z" />
    <glyph glyph-name="e" unicode="e" horiz-adv-x="700" 
d="M686 -94q0 -64 -33 -64q-57 0 -73 -2l-96 -12q-12 0 -36 2t-36 2q-44 0 -93 -6q-10 -1 -39 -4q-123 -15 -113 -15h-98q-5 0 -14.5 2.5t-14.5 2.5q-8 6 -14 14q2 -2 2 18v194l-10 228l-4 452q3 6 11 18q18 18 33 18q5 0 16 -3.5t16 -3.5q13 0 59 12q54 13 64 15q14 2 56 5
l273 17q25 2 30 -11q13 -35 28 -99q13 -56 13 -66q0 -31 -32 -31q-6 0 -19 5t-18 5q-13 0 -38 -3.5t-38 -3.5q-6 0 -17 -3.5t-16 -3.5t-16.5 3.5t-17.5 3.5q-27 0 -55 -1l-55 -2q-5 0 -17 -6q7 -19 7 -44v-16q-1 -11 -1 -15q0 -34 35 -36l227 -10q7 0 21.5 1.5t20.5 1.5
q17 0 24 -5q4 -4 7 -16.5t1 -18.5l25 -166q-20 -26 -37 -26q-6 0 -17.5 2t-17.5 2q4 0 -77 -24q-32 -6 -94 -25q-11 -87 -11 -104v-35q2 0 6.5 -1.5t7.5 -1.5q17 0 48.5 11t48.5 11q-8 0 181 -12q1 -32 4 -94zM620 -1q-8 8 -23.5 10t-29.5 4q-24 5 -35 5q-21 0 -62 -5
q-9 -1 -36.5 -8.5t-35.5 -7.5t-20.5 -3.5t-18.5 -3.5q-35 0 -35 39q0 25 11 188q6 6 19 15q34 7 130 28q23 5 86 19v34q-2 15 -15 91q0 9 -33 12q-24 3 -42 2q-6 0 -18 1t-17 1q-44 0 -95 5q-10 2 -30 2h-13q-69 0 -88 23q-1 15 0 71q1 44 -6 69q-12 11 -12 25q0 10 9 22
q3 0 10 7.5t11 7.5q8 0 38 -10h113q9 0 28 -4t28 -4q5 0 13 3.5t12 3.5q28 0 63 5q7 0 12 -8v30q0 17 -22 70q-23 5 -18 5l-257 -14q-19 -1 -152 -33q-1 -9 -1 -22v-207l-11 -250l11 -127v-122q0 -32 8 -108q25 -4 78 -4l204 25q-7 0 55 -1q67 -1 79 0q20 2 103 12
q2 52 5 107z" />
    <glyph glyph-name="f" unicode="f" horiz-adv-x="596" 
d="M583 484q0 -8 -13.5 -18.5t-21.5 -10.5q-4 0 -12 3t-11 3q-52 2 -104 11q-40 7 -106 7q-46 0 -54 -6q4 -28 11 -82q2 -14 4 -21q7 -25 59 -33q13 -2 74 -5q34 -6 38 -6q3 0 9 2t9 2q5 0 18.5 -8t16.5 -13v-124q-6 -10 -45 -13q-28 -2 -52 -6q-5 -1 -20.5 -6.5t-19.5 -5.5
q-3 0 -6.5 2t-5.5 2q-34 0 -43 -6q-13 -9 -13 -41q0 -4 8 -69q10 -78 12 -108q1 -7 4 -43q0 -1 4.5 -11.5t4.5 -14.5q0 -22 -22 -22q-2 -1 -9 -6q-3 0 -8.5 1.5t-8.5 1.5t-10 -2t-11.5 -2t-15.5 -3t-16 -3q-68 0 -80 -1t-45.5 -11.5t-45.5 -10.5q-8 0 -16.5 11.5t-7.5 19.5
l5 66q-1 28 -6 86l-5 57v178q0 27 -1 55l-2 55v142q0 48 -2 89q-1 17 -4 66q0 8 -3.5 24.5t-3.5 24.5q0 5 6.5 12t11.5 7q4 0 6 -3q2 4 -1 12t-3 10q0 26 61 29q39 2 50 2l167 23q29 4 121 4q20 0 58 9.5t58 9.5q6 0 16 -6.5t10 -11.5q3 -52 3 -122v-152q0 -3 4.5 -10
t4.5 -10zM516 611q0 85 -7 132q-92 -3 -206 -14q-39 -6 -149 -21q-28 -4 -84 -18l9 -160v-245l18 -422l161 17v44l-30 222q1 21 15.5 39.5t34.5 18.5q3 0 11 -6q4 0 13 1.5t13 1.5h44q37 9 74 17q5 22 4 58q-45 21 -167 21q-29 0 -44 15q-2 15 -12 92q-1 8 -11 51
q-8 35 -8 45q0 8 12 20t20 12q4 0 10.5 -3.5t9.5 -3.5h122q12 -1 57 -7q55 -7 87 -9q3 39 3 102z" />
    <glyph glyph-name="g" unicode="g" horiz-adv-x="836" 
d="M822 -2q0 -9 -9 -15q-17 -8 -32 -19q-3 -3 -8 -11q-13 -1 -63 -73q-4 -12 -15 -36q-11 -17 -30 -19q-31 0 -95 -3q-45 -9 -51 -9q-10 0 -28 -1.5t-27 -1.5q-59 0 -66 1q-36 5 -86 13q-18 3 -80 38q-78 44 -138 134q-56 84 -77 178q-7 31 -7 93q0 65 37 196q34 121 50 138
l33 15q8 4 36 38q52 51 116 91q83 52 137 52q109 0 247 -35q9 0 23 -3q24 -14 24 -30q0 -4 -12 -31q-8 -18 -16.5 -37.5t-27.5 -64.5q-2 -13 -8 -39q-2 -4 -10 -11q-5 -1 -10 -1q-11 0 -30 10q-22 11 -30 13q-18 4 -94 4q-47 0 -76 -21q-57 -42 -78 -95q-17 -45 -17 -123
q0 -187 78 -234q30 -18 57 -24q2 0 60 -8q13 24 16 124q-5 5 -19 7q-70 11 -87 11q-5 0 -17 -5t-17 -5q-4 0 -11 4t-9 4q-9 10 -9 19q10 46 15 87q4 31 1 59q-4 42 -5 36q12 16 36 16q3 0 10.5 -3.5t12.5 -3.5q-1 0 78 5l79 5q8 0 61 -3l61 -4q8 -1 27 3t27 4q17 0 32 -21
q5 -53 16 -205q1 -31 6 -119q1 -13 10 -42.5t9 -41.5zM752 5v15q0 21 -5.5 59.5t-5.5 57.5q-1 7 -3 54q-4 86 -6 89q-4 52 -14 90q-2 3 -6 6q-15 -1 -59 2l-44 3q-23 2 -46 2q-68 0 -144 -16q1 -9 -6 -111q51 -8 152 -25q12 -16 12 -23l-6 -55q-6 -55 -6 -84q0 4 9 -16
q0 -8 -4 -23q-9 -16 -47 -16q-11 0 -37 5q-32 6 -39 7q-39 5 -72 16q-66 22 -100 98q-26 58 -25 120q0 17 -1 35l-2 28q-2 30 6 89q3 22 12 62q54 148 222 148q7 0 6 -6q12 0 35 -4t35 -4q25 0 33 -3q27 60 47 115q-127 34 -155 34q-38 0 -84 -6q-32 -4 -75 -34
q-105 -72 -180 -149q-10 -10 -16 -24q-17 -40 -38 -125q-26 -106 -26 -167q0 -33 4 -58q8 -25 17 -53q33 -105 114 -187q91 -92 192 -92q-1 0 19.5 -1t44.5 -1l63 -1q5 0 14 1.5t14 1.5q21 0 92 18q17 25 65 86q2 7 8 18q21 21 36 24z" />
    <glyph glyph-name="h" unicode="h" horiz-adv-x="796" 
d="M780 -125q0 -12 -11.5 -22.5t-23.5 -10.5q-4 0 -17 6t-19 6q-53 3 -168 13q-9 1 -21 14q7 98 5 140q-5 102 -5 105v41q0 36 -12.5 48.5t-48.5 15.5q-17 1 -60 4q-6 -6 -5 -26l21 -318q2 -32 -44 -32q-4 0 -13 2t-13 2q-10 -1 -172 -24q-13 -2 -64 -14q-46 -11 -58 -11
q-20 0 -23 26v122q14 112 14 171v97l3 206q1 60 -9 111q-3 18 -7 94q-2 39 -6 80q0 3 -6.5 9t-6.5 11q0 14 12 16q97 13 188 30l47 9q11 -11 13 -15q2 -9 2 -45v-92q0 -48 11 -177q1 -7 31 -11q8 -1 12 -1h10q-1 0 19 1t44 1l63 1q19 0 21 9q17 78 28 202q-1 16 -1 46
q14 19 32 19q3 0 5 -2t5 -2t94 29q4 1 18 10.5t19 9.5q-3 0 23 -5q8 -5 14 -14q12 -95 12 -118v-144l34 -404v-108q0 -19 7 -55.5t7 -55.5zM714 -96v13q0 13 -3.5 38t-3.5 38v94l-35 394v84q0 68 -11 151l-50 -14q-49 -14 -49 -46v-25q0 -13 -7 -66q-1 -7 -11 -70
q1 -27 -2 -76q-17 -13 -26 -13q-14 0 -42 3.5t-42 3.5q-20 0 -83 -3l-84 -4q-14 -1 -30 9q-19 11 -18 24q1 5 5 14q-6 103 -14 291l-121 -22l23 -264l-19 -584l257 35v81q0 10 -3.5 31t-3.5 31v92q0 13 -2 39.5t-2 39.5q-1 5 -7 21t-6 19q0 12 12 20t25 8q4 0 15.5 -4.5
t15.5 -4.5q49 -7 136 -18q14 0 37 -5q4 -3 7 -43l10 -119v-86q0 -15 2 -44t2 -44q44 -18 50 -18q77 0 78 -1z" />
    <glyph glyph-name="i" unicode="i" horiz-adv-x="328" 
d="M304 -102q0 -13 -9 -26.5t-21 -13.5h-44l-183 -51q-28 4 -33 20v569q0 -13 3.5 41t2.5 68q-3 32 0 79q5 81 3 109q-4 12 -4 22q0 20 34 33q34 9 46 13l73 24q3 0 7.5 -1.5t7.5 -1.5t19 9t20 9q26 0 31 -23q2 -7 1 -48q0 -18 1 -45l2 -45l7 -417q2 -27 6 -98
q5 -102 17 -181q1 -6 7 -22.5t6 -22.5zM228 -91l-18 201v91q0 13 -7 94l-8 93v350q-2 0 -5.5 2t-6.5 2q-13 0 -92 -30l-15 -396v-430q0 -16 13 -21q23 6 62 19q0 10 12 10q5 0 4 -1.5t3 -1.5q7 0 28.5 8.5t29.5 9.5z" />
    <glyph glyph-name="j" unicode="j" horiz-adv-x="712" 
d="M687 217q3 -108 -36 -228q-14 -42 -52 -84q-8 -9 -58 -40q-13 -8 -49 -29q-56 -29 -86 -29q18 0 -18 2.5t-60 3.5q-12 0 -41 1q-47 3 -99 48q-2 2 -79 80q-102 104 -102 127q10 32 15 35q33 19 69 44q12 8 52 41q32 32 52 32q4 0 9 -1q11 -4 19 -46q4 -20 21 -56
q13 -27 21 -40q37 -59 87 -59h23q13 2 23 16q8 11 17 62q15 84 15 156q0 30 -3 108q-4 20 -22 121q-21 115 -31 149q-2 8 -18 49q-12 32 -12 35q12 18 20 23.5t28 5.5q3 0 9.5 -1.5t9.5 -1.5q13 0 91 18q73 17 96 24q26 13 39 13q27 0 32 -47q0 -51 1 -69q3 -35 8 -135
q1 -52 5 -201zM625 201l-7 333l-18 200l-176 -42v-15q0 -5 7 -23q8 -21 9 -26q13 -63 41 -212q9 -48 9 -139q0 -66 -10 -150q-6 -53 -13 -77q-14 -51 -39 -65q-39 -22 -69 -22q-20 0 -56 10.5t-48 21.5q-53 50 -90 149q-32 -25 -89 -71q20 -29 54 -74q20 -26 60 -56
q28 -28 46 -45q38 -36 63 -36h123q11 0 53 22t54 32q44 38 56 73q42 123 40 212z" />
    <glyph glyph-name="k" unicode="k" horiz-adv-x="788" 
d="M775 47q0 -15 -18 -25l-32 -13q-90 -61 -123 -110q-10 -15 -28 -15q-5 0 -14 4t-11 4q-50 73 -77 107q-55 70 -105 106q-2 -5 -2 -30q0 -10 15 -171q0 -5 6.5 -18.5t6.5 -17.5q0 -13 -14.5 -26.5t-27.5 -13.5q-4 0 -15 6t-15 7q-7 1 -114 1q-16 0 -95 -14l-79 -14h-15
q-1 4 -6 14.5t-5 17.5q0 -13 22 194l22 207q6 53 14 232q1 22 14 172q5 58 3 81q4 5 10 13q-1 3 -1 7t1 8q16 8 47 8q41 0 48 1q14 5 42 10q5 4 14 9q7 1 40 5q4 -4 10 -12q2 -15 2 -52t-2 -96q1 -1 1 -86q63 61 119 114q118 111 150 111q10 0 32 -22q29 -28 53 -44l16 -4
q13 -2 23 -13q4 -4 4 -17q0 -28 -203 -305q0 -5 35 -38l57 -54q35 -34 109 -121q9 -11 53 -63q33 -39 33 -44zM691 51q-87 122 -220 248q-61 58 -61 60q0 -3 5 14q50 51 145 185q42 59 54 101l-62 43q-14 0 -105 -82q-66 -60 -91 -85q-29 -29 -57 -62q-2 -12 -10 -27
q-23 -11 -40 -11q-9 0 -18.5 11.5t-9.5 21.5q0 13 4 39t4 38q4 164 2 195q-38 -11 -76 -11l-77 -855q72 8 241 18q-8 79 -22 236q0 13 -4 36q0 2 -4.5 8t-4.5 10q0 15 14.5 27t29.5 12q10 0 62 -53q14 -15 53 -55q12 -8 31 -25q36 -48 110 -130q19 14 57 44q33 26 50 49z
" />
    <glyph glyph-name="l" unicode="l" horiz-adv-x="652" 
d="M632 -78q-16 -11 -35 -11l-21 2q-12 1 -20 0q-20 -3 -90 -18l-60 -13q-10 0 -29 -3.5t-29 -3.5l-303 -64q-34 10 -31 23l18 562q0 14 -1 48l-2 47v92q0 64 -2 108q0 8 -4.5 25.5t-4.5 26.5q0 10 12 23t22 13q4 0 14 -4t14 -4q27 0 79.5 14.5t79.5 14.5q22 0 25 -38
q0 -6 -6 -14q-7 -97 -7 -207v-8q-1 -8 -1 -13v-20q0 5 1 -30q0 -43 1 -98l2 -170q0 -7 3 -36q3 -24 1 -36q-1 -6 5 -12l149 14q98 0 125 8q21 6 24 6q9 0 19 -8.5t11 -17.5q9 -36 28 -132q0 -4 6.5 -17.5t6.5 -18.5v-30zM557 -39v13q0 34 -29 111q-33 -5 -86 -6l-87 -2
q-15 0 -83 -11l-58 -9q-8 0 -28 20v543q0 12 4 71q3 43 -5 52q-61 -6 -95 -15l3 -298l-10 -558h40l190 46q109 9 244 43z" />
    <glyph glyph-name="m" unicode="m" horiz-adv-x="1136" 
d="M1110 745q0 -6 -3.5 -17.5t-3.5 -17.5v-114q0 -24 -7 -67q-9 -52 -10 -68q-14 -162 -20 -337q-1 -39 -11 -251q0 -8 -11 -22q-4 0 -12.5 -2.5t-12.5 -2.5q-2 0 -6 2t-6 2q-16 0 -66 -11l-27 -6q-22 -5 -44 -16q-12 -6 -19 -6q-3 0 -38 15q-9 43 -25 124q-6 73 -32 230
q-1 0 -4 -3q-13 -37 -31 -108q-19 -74 -31 -108q-8 -16 -19 -50q0 -15 -2 -42q-5 -19 -25 -19q-5 0 -13 -3.5t-12 -3.5q-3 0 -8.5 3.5t-9.5 3.5q-28 0 -83.5 -12.5t-83.5 -12.5q-26 0 -32 19q-66 203 -144 350l8 -252q-2 -10 -6 -34q-2 -13 3 -53q1 -8 -3 -25q-4 -5 -17 -11
q-21 -5 -27 -5q-4 0 -16 4.5t-18 4.5q-69 9 -104 9q-4 0 -12.5 -2t-12.5 -2q-53 0 -46 82l14 165v85l14 312v187q0 41 12 79q76 2 180 2q5 0 18 -5.5t19 -5.5q3 0 8 2t8 2q26 0 34 -16q8 -23 27 -71q32 -63 150 -225q20 70 111 314q0 12 5 39q2 5 22 21q4 1 15 1
q-40 0 61 -6l127 -7q62 -1 124 1q30 1 60 0l59 -2q22 -3 26 -9q9 -35 9 -28zM1039 628q-1 48 -1 104h-238q-6 0 -19.5 4t-19.5 4q-59 0 -83 3q-11 -13 -20 -40q-3 -11 -14 -39q-84 -196 -101 -305q1 -10 -1 -24q-23 -28 -28 -28l-3 2q-4 2 -7 2q-25 0 -35 20q-24 49 -75 122
l-85 123q-18 39 -45 85q-11 19 -21 21q-53 12 -67 12q-9 0 -27 -5.5t-27 -5.5q-8 0 -22 7l-26 -739q-1 -33 1 -44q6 -29 33 -29q5 0 14.5 -1.5t14.5 -1.5h64l-4 6q1 37 2 98q4 24 3 41l-18 291q-1 13 12.5 24t26.5 11q14 0 38 -20q1 -8 3 -18q84 -150 111 -213
q34 -81 90 -210q47 3 139 18q34 100 44 136q40 146 70 212q5 22 9 43q10 34 35 34q31 0 35 -12q18 -77 37 -213q3 -29 11 -110q4 -36 28 -115q82 15 115 25q9 108 13 197q2 81 14 294q7 62 24 234z" />
    <glyph glyph-name="n" unicode="n" horiz-adv-x="928" 
d="M905 620l-17 -248l-5 -219l12 -261q-29 -1 -82 -9q-12 -4 -97 -46q-16 -10 -46 -29q-2 -1 -17 -1h-22q-5 0 -11 8q-14 36 -67 93q-23 25 -83 89q-22 24 -68 86q-42 56 -71 84q-6 -33 -6 -86q0 -34 25 -185q10 -20 10 -23q0 -10 -8 -19t-18 -9l-29 5q-31 5 -48 5
q-31 -1 -61 0l-42 1q-49 1 -74 -13q-2 -1 -17 -1q-40 0 -40 28q0 6 5 12q-16 12 -16 29q0 6 2.5 17.5t2.5 17.5v303q0 18 -5 54.5t-5 54.5v280q11 11 17 15q12 10 19 10l189 95q17 2 32 -16q72 -86 93 -120q102 -161 175 -281q28 -46 60 -87q5 19 8 97q1 21 7 71q5 46 5 72
v118q0 18 -5.5 54.5t-5.5 54.5q0 11 15 22t27 11q6 0 16.5 -1.5t16.5 -1.5q34 0 115 18q8 2 38.5 14.5t34.5 12.5h8q12 0 24 -12q3 -8 9 -28q6 -49 0 -136zM843 650q1 18 -8 80q-40 -10 -167 -36q0 -2 5 -99q2 -33 -8 -161q-2 -38 -11 -221q-1 -23 1 -37q6 -36 5 -38
q-9 -18 -18 -20h-14q-23 0 -33 17q-70 120 -156 258q-26 38 -97 147q-64 98 -110 150q-32 -9 -75 -34q-15 -9 -79 -46q-1 -58 -8 -102v-185q0 -10 3.5 -28.5t3.5 -28.5v-368h201l9 8l-25 176v167q16 23 26 23q11 0 38 -5q39 -54 157 -204q46 -51 176 -197q62 27 169 68
l4 528z" />
    <glyph glyph-name="o" unicode="o" horiz-adv-x="876" 
d="M858 364q0 -230 -105 -373q-20 -17 -55 -50q-18 -22 -60 -60q-56 -38 -151 -58q-7 -2 -99 -13q-30 -3 -44 -3q-4 0 -17.5 8.5t-16.5 8.5q-5 0 -5 -3v0q0 -4 -4 -4q-3 0 -9.5 7t-11.5 7q-4 0 -3 -1.5t-4 -1.5q-11 0 -59.5 26.5t-57.5 36.5q-89 98 -120 177q-26 66 -26 177
q0 113 18 185q25 100 96 186q2 7 9 20q5 2 11 7q17 32 51 62q28 25 90 62q9 2 28 6q11 6 34 15q29 8 73 8q50 0 118 -18q6 -2 70 -24q8 -6 24 -16q76 -34 138 -112q5 -13 16 -34q25 -32 48.5 -108t23.5 -120zM796 366q0 104 -81 243q-3 2 -9 7q-20 37 -78 68q-20 11 -107 45
q-23 9 -106 9q-11 0 -58.5 -13.5t-61.5 -19.5q-54 -24 -116 -111q-66 -93 -89 -171q-21 -71 -21 -189q0 -10 5 -55q6 -55 13 -77q5 -17 21 -44q17 -30 22 -42q22 -53 116 -121q15 -11 50 -17q6 -1 29 -8.5t28 -7.5h50q-8 0 73 16q60 12 80 23q111 62 161 163q12 19 29 49
q50 139 50 253z" />
    <glyph glyph-name="p" unicode="p" horiz-adv-x="804" 
d="M786 438q0 -123 -137 -205q-65 -39 -145 -63q-8 -2 -127 -36q10 -96 36 -286q-10 -12 -33 -12q1 0 -49 2l-50 2q-16 1 -119 -17l-37 -7q-7 -1 -15.5 -3t-4.5 -2q-3 0 -6 3.5t-7 3.5t-11.5 2t-11.5 2l-36 501v83q0 3 -4 57l-5 67l-7 188q0 6 -5 19.5t-5 18.5t4 12l4 6
q23 0 67.5 6t67.5 6q10 0 31 3.5t31 3.5q98 0 210 -21q18 1 55 -2q21 -5 57.5 -24t54.5 -25q70 -22 127 -90q26 -32 48 -92t22 -101zM732 430q0 50 -45 143q-26 54 -68 77q-28 11 -80 35q-10 7 -26 16q-71 23 -66 23q-7 0 -21.5 -2t-21.5 -2q-14 0 -45.5 11t-45.5 11
q-10 0 -32 -1.5t-33 -1.5q-79 1 -186 -19v-16q0 -12 5 -58q3 -24 8 -80l42 -677q1 -13 11 -24l223 23q-6 67 -23 215q-1 8 -10.5 29.5t-9.5 24.5q0 15 20 26q8 4 29 16q7 -8 13 -8q49 0 212 63q7 6 22 16q40 17 82 67q46 54 46 93z" />
    <glyph glyph-name="q" unicode="q" horiz-adv-x="836" 
d="M820 361q0 -7 -4.5 -23.5t-4.5 -24.5q-2 -37 -34 -103q-10 -13 -36 -49q-34 -47 -34 -64q0 -8 27.5 -49.5t37 -50.5t9.5 -20q0 -14 -19 -24q-12 -5 -23 -9q-31 -20 -86 -66l-76 -64q-9 -8 -30 -8q-9 0 -69 64.5t-63 64.5q-6 -2 -36.5 -10.5t-81.5 -8.5h-51q-9 0 -44 19
q-31 17 -44 27q-95 72 -125 190q-20 79 -20 119v83q0 9 4 26t4 26q1 110 86 222q79 104 161 128q9 1 37 14.5t33 13.5t18 -3.5t19 -3.5q18 0 53.5 8t53.5 8q21 0 83 -17q9 -2 67 -33q18 -10 71 -38q75 -56 90 -102q27 -82 27 -113v-129zM762 427q0 105 -34 176q-9 11 -22 28
q-22 37 -82 66q-24 11 -88 40q-6 3 -39 6q-5 0 -16.5 4.5t-15.5 4.5q-18 0 -51.5 -11.5t-51.5 -11.5q-5 0 -15.5 6.5t-13.5 6.5q-10 0 -54.5 -26t-58.5 -37q-105 -85 -134 -221q-15 -71 -15 -139q0 -181 86 -281q23 -27 53 -54q52 -30 81 -30h51q17 0 55.5 14.5t55.5 14.5
q10 0 14 -4q5 -10 16 -27q17 -19 65 -73q8 -9 18 -8l141 103v11q-24 41 -32 51q-21 29 -42 42q2 9 7 22q83 125 97 158q25 59 25 169z" />
    <glyph glyph-name="r" unicode="r" horiz-adv-x="844" 
d="M826 22q0 -2 -54 -53q-61 -57 -88 -90q-14 -25 -30 -50q-4 -6 -18 -14t-20 -8q-20 0 -25 5q-23 23 -56 74q-44 68 -100 157q-37 73 -100 178q-6 10 -49 10q-4 0 -4.5 -2t-1.5 -2q-5 -2 -5 -13q0 -10 5 -28.5t5 -27.5v-118q0 -15 -2 -48q-1 -19 -2 -48q-2 -57 -3 -46
q10 -19 10 -23q0 -8 -13 -22t-21 -14q-4 1 -40 9q-13 3 -24 4q-56 6 -110 6h-37q-36 4 -36 24q0 10 6 33.5t7 32.5l16 214v130l1 20q2 24 3 49l3 67q1 6 6 31l7 37q17 90 17 192v11q-1 11 -1 22v39q15 19 42 19q2 -1 9 -7q-8 -1 89 -1q4 0 9 3t8 3q36 4 86 7q15 1 57 7
q36 5 57 5q14 0 40.5 -3t37.5 -3q72 -3 125 -16q8 -5 25 -12q90 -22 142 -98q5 -7 14 -35t9 -37q0 -43 -18.5 -102t-43.5 -91q-39 -49 -95 -88q-11 -7 -42 -29q4 -22 62 -91q37 -42 73 -84q68 -80 68 -85zM751 578q0 94 -122 139q-89 33 -211 33l-282 -29l-36 -449v-132
l-18 -212q-1 -17 12 -20q54 -12 104 -12l22 -2q-7 4 -6 29l7 149q3 60 -7 119l-8 48q0 20 4 28q8 16 34 21l8 7q13 0 16 -1q31 -17 58 -17q9 0 26.5 3.5t26.5 3.5q20 0 31 -63q68 -138 200 -324q6 -8 15 -8l115 126q-48 80 -176 231q-8 4 -19 12q-8 13 -8 21q0 14 42 35
q60 30 106 83q52 61 56 120q1 9 5.5 29.5t4.5 31.5z" />
    <glyph glyph-name="s" unicode="s" horiz-adv-x="736" 
d="M718 128q0 -110 -70 -192q-68 -78 -177 -105q-84 -21 -88 -21h-77q-27 0 -76 18t-68 35q-83 77 -100 113l-55 152q55 36 156 117q8 8 33 8q13 0 17 -11l8 -22q7 -19 29.5 -46.5t39.5 -36.5q49 -26 100 -52q9 7 23 22q14 21 14 39q0 15 -11 30q-33 46 -140 102
q-55 15 -109 45q-40 22 -59 44q-37 42 -37 98q0 156 159 270q85 61 147 61q21 0 41 -1l40 -2q57 -3 91 -11q6 -1 31.5 -12.5t29.5 -11.5q53 0 53 -29q0 -5 -22 -39l-29 -45q-4 -16 -15 -42q-9 -14 -28 -14q-3 0 -38.5 23t-77.5 23q-88 0 -137 -87q-15 -26 -15 -33
q0 -37 38 -68q34 -27 74 -34q3 -1 94 -32q64 -22 91 -42q49 -36 64 -64q56 -103 56 -147zM657 109q0 27 -31 98q-12 20 -20 35q-35 67 -193 123q-25 9 -97 34q-27 15 -47 41q-33 44 -33 77q0 7 14 27q7 9 24 33q34 51 65 70q9 5 49 16t50 11q8 0 46 -3q10 -1 33 -9t29 -8h10
q10 16 33 61l-68 24q-39 14 -79 13q9 0 -68 2q-25 1 -76 -28q-169 -95 -169 -251q0 -93 95 -128q8 -3 91 -30q21 -10 48 -28l42 -29q87 -49 87 -106q0 -43 -34.5 -77t-78.5 -34q-16 0 -64 31q-51 22 -73 36q-41 26 -52 58q-3 6 -17 20q-17 -8 -50 -31q-45 -31 -45 -48
q0 -9 6 -23q8 -18 9 -23q16 -66 73 -126q60 -65 123 -73q5 -1 17.5 -5t18.5 -4h45q8 0 22.5 1.5t21.5 1.5t25 6q23 8 26 9q60 15 116 63q32 27 54 78t22 95z" />
    <glyph glyph-name="t" unicode="t" horiz-adv-x="736" 
d="M713 775q-24 -83 -37 -209q5 -18 5 -48q-5 -18 -30 -24q-9 -2 -41 -6q-74 -28 -116 -37q-6 -4 -7 -8q-6 -22 -6 -37q0 -20 7 -59.5t7 -59.5v-155q0 -14 3.5 -40.5t3.5 -40.5q0 -4 -6 -66q-7 -74 -8 -101q0 -2 2 -7l2 -6q3 -10 5 -14q-9 -33 -47 -33q-5 0 -25 2
q-29 3 -38 1q-5 0 -17 -3.5t-17 -3.5l-10 4q-17 0 -51.5 -7t-51.5 -7h-13q-14 0 -32 18q1 13 6 35l-3 447l10 152q1 15 0 20q-2 10 -19 12q-53 1 -150 13q-6 2 -15.5 13t-9.5 17q0 13 8 45q10 41 11 47q3 16 10 63q10 84 27 84q16 0 47.5 -7t47.5 -7q8 0 25 3.5t25 3.5h223
q8 0 22.5 -1.5t22.5 -1.5l201 24q17 0 29 -15zM638 736l-14 3q-34 -3 -93 -8l-65 -6q-20 0 -50 1q-54 2 -73 1q-6 0 -19 -3t-20 -3q-5 0 -14.5 3.5t-13.5 3.5q-13 0 -40 -5t-40 -5q-10 0 -29 1.5t-29 1.5q-23 0 -35 -11l-17 -155q1 0 5 1t6 1q24 0 70 -11.5t70 -11.5
q3 0 8 3t9 3q26 0 26 -25t-7 -70q-7 -49 -8 -70l-6 -114l8 -396q82 0 159 11l9 170l-5 220q-1 35 -8 116q-1 11 -9 40q-7 26 -7 38q0 9 23 28q101 16 177 50z" />
    <glyph glyph-name="u" unicode="u" horiz-adv-x="828" 
d="M812 636q0 -18 -4.5 -51t-4.5 -49q-6 -199 -56 -382q-8 -17 -28 -68q-14 -38 -29 -78t-39 -70q-2 -10 -12 -26q-17 -16 -63 -50q-7 -5 -70 -29q-69 -26 -87 -26h-33q2 0 -52 9q-72 2 -146 64q-63 53 -103 126q-1 1 -12 33q-19 54 -32 101q-4 32 -7 131l-10 379
q-15 10 -17 28l99 55q9 0 26.5 -3.5t26.5 -3.5q14 0 60 17t60 17q7 0 18 -8q0 -1 3 -65q2 -42 2 -66q2 -2 2 -30t-2 -81l4 -40q2 -38 8 -137q19 -275 144 -275h11q19 0 47 47q10 16 32 103q16 60 33 188q8 61 13 104v130q0 12 -7 42t-7 46q0 15 15 20q9 1 30 6q50 12 85 34
q24 15 40 15q13 0 30 -15q5 -7 6 -13q0 -7 -3 -20q7 -5 18 -17q11 -32 11 -92zM748 636q0 34 -8 72q-2 10 -10 18q-28 -9 -79 -30q0 -11 3.5 -31.5t3.5 -31.5v-133q0 -17 -15 -131q-2 -21 -9 -75q-4 -30 -26 -116q-37 -144 -117 -168q-5 -1 -16 -5q-74 0 -118 33
q-38 29 -71 100q-22 49 -27 90q-10 91 -16 236l-9 235q-13 -3 -49 -16q-31 -11 -36 -11q-3 0 -9.5 3.5t-10.5 3.5q-51 0 -48 -69l13 -261q2 -50 8 -172q6 -24 14 -67q3 -55 76 -145q82 -101 160 -101q11 0 33.5 -3.5t33.5 -3.5q60 0 124 49t83 107q13 39 26 73
q65 165 84 440q0 5 7 65z" />
    <glyph glyph-name="v" unicode="v" horiz-adv-x="1016" 
d="M996 758q-2 -5 -46 -96q-23 -46 -74 -157q-26 -64 -101 -244q-17 -41 -188 -383q-7 -15 -40 -15q-10 0 -17.5 8.5t-10.5 8.5q-7 0 -15 -6q-39 -5 -80 -16q-12 -3 -49 -21q-16 -12 -31 -22q-7 -5 -24 -5q-23 0 -36 25q-6 16 -17 47l-59 164q-44 122 -92 271l-67 209
q-42 130 -42 133q0 19 74 85q10 9 28 33q16 -1 50 2q22 -38 59 -116q39 -125 75 -223q9 -24 127 -260q27 38 69 139l125 305q62 151 83 151q12 0 19 -3l7 7q10 -7 38 -7q18 0 164 14q3 0 14 5t15 5q17 0 37 -18q5 -27 5 -20zM909 731l-12 3q-77 -5 -167 -20
q-59 -112 -102 -218q-45 -110 -110 -265q-15 -27 -40 -77q-9 -30 -26 -76q-6 -10 -27 -10q-29 0 -41 24q-3 13 -9 35q-38 83 -91 191q-69 141 -85 195q-8 28 -29 100q-29 96 -47 96q-46 -43 -46 -57q0 -26 43 -144l49 -135q10 -41 74 -227q91 -266 105 -266q4 0 24.5 9.5
t26.5 10.5q55 11 79 17q58 15 67 30q70 116 122 234z" />
    <glyph glyph-name="w" unicode="w" horiz-adv-x="1228" 
d="M1214 763q0 -4 -12 -83q-14 -90 -17 -123q-17 -44 -31 -134q-6 -48 -25 -184q-11 -79 -47 -257q-4 -18 -29 -24q-19 -2 -38 -5q-40 -14 -189 -106q-4 0 -13.5 4t-11.5 4q-60 170 -164 326q-12 -41 -28 -122q0 -55 -5 -164q-1 -6 -10.5 -13.5t-15.5 -7.5q-8 0 -25.5 5
t-25.5 5q-34 0 -274 -52q-7 -2 -31 -13.5t-28 -11.5q-10 0 -29 14l-10 111q-3 31 -22 137q-7 37 -20 110q-27 86 -37 174l-32 124q-31 120 -31 159q0 28 5 36q9 15 68 50q64 38 90 38q16 0 26 -5q48 -104 78 -211l53 -189q1 3 24 109q11 50 52 211q5 9 14 26q37 0 84 21
q19 9 69 33q17 8 29 8q18 0 36 -18q0 -14 33 -83l134 -380h3q30 97 47 175q5 26 22 122q17 91 34 145q6 19 39 19q3 0 10 -1.5t10 -1.5q4 0 14 3t14 3q10 0 55 9q54 11 85 22q4 1 19 11q12 8 19 8q10 0 22.5 -11.5t12.5 -21.5zM1150 729h-14q-6 0 -158 -34q-19 -31 -29 -80
q-4 -24 -17 -87q-26 -123 -48 -198q-9 -31 -29 -113q-2 -45 -3 -50q-6 -29 -31 -29h-17q-13 0 -17 12q-37 119 -90 274q-32 93 -106 279h-11q-12 -7 -71 -33l-24 -10q-16 -7 -19 -15q-27 -62 -49 -161q-8 -36 -32 -164q-11 -59 -11 -97q0 -26 5 -44q1 -16 -20 -28h-9
q-16 3 -35 16l-47 190q-37 148 -47 185q-46 164 -62 164q-39 -20 -50 -27q-32 -20 -39 -36l114 -534l37 -238q21 1 53 7q3 2 7 2l264 51q4 61 15 161q12 51 27 161q-4 10 -8 26q23 26 45 26q11 0 42 -58q18 -34 35 -68q16 -27 60 -104q21 -43 83 -165q79 47 125 69
q26 9 56 26q11 20 24 97q12 71 51 310z" />
    <glyph glyph-name="x" unicode="x" horiz-adv-x="876" 
d="M857 68q0 -12 -5 -17q-56 -46 -125 -157q-5 -9 -15 -36q-2 -6 -15 -12t-20 -6h-16l-224 290q-7 2 -23 -25q-6 -10 -19 -34q-2 -3 -83 -120q-49 -70 -73 -127q-7 -17 -32 -17q-17 0 -23 4q-26 18 -76 37q-57 23 -77 34q-5 1 -14 3l-10 20q0 9 9 18q16 17 20 23
q33 53 128 202q7 11 136 195q-7 11 -43 59q-54 71 -71 95q-89 126 -123 208q11 15 35 34q126 41 170 41q16 0 34 -12q15 -29 91 -116q67 -78 85 -125q56 79 158 232q1 7 5 20q10 18 32 18q15 0 20 -5q67 -65 141 -90q23 -8 23 -30q0 -9 -8 -14q-10 -8 -12 -11
q-26 -45 -55 -90q-21 -30 -74 -108q-55 -81 -55 -97q0 -18 21 -46l100 -131q51 -66 78 -90q5 -8 5 -17zM787 63q0 10 -64 89l-79 97q-50 61 -64 97l203 319q-34 24 -102 65q-94 -131 -167 -251q-4 -13 -15 -33q-8 -9 -26 -9q-28 0 -36 22q-2 16 -8 43q-12 32 -34 67
q-53 68 -99 117q-38 41 -44 41q-14 0 -53 -10.5t-54 -17.5q-11 -5 -15 -14q62 -111 98 -160q29 -39 90 -111q51 -60 55 -66q0 -14 -7 -22q-68 -76 -144 -189q-64 -101 -128 -201q-7 -11 -7 -25q13 -7 49 -23q41 -18 49 -18q7 0 79 108q67 101 83 130q56 105 83 105
q13 0 17 -1q28 -35 144 -195q62 -85 91 -100q14 22 65 89q40 53 40 57z" />
    <glyph glyph-name="y" unicode="y" horiz-adv-x="800" 
d="M786 722q0 -2 -35 -59l-98 -160q-22 -36 -55.5 -90t-44.5 -88v-33q0 -14 2 -39q2 -29 2 -39q2 -64 2 -147v-106q0 25 6 -34q7 -62 6 -69q-13 -13 -26 -13q-11 0 -26 4.5t-19 4.5q-17 0 -93 -24l-76 -24q-19 0 -20 15q-4 56 -4 90v210q0 -11 -4.5 44.5t-3.5 70.5
q2 49 -39 96q-55 62 -224 240q-9 5 -22 15q-8 8 -8 18q0 15 20 19q-1 20 24 53l42 46q34 37 47 59q6 0 20.5 2t20.5 2q47 -78 90 -158l47 -86q23 -43 61 -78q13 22 87 143q25 42 39 80q5 17 21 59q21 51 47 51q2 0 27.5 -13t31.5 -15q55 -17 102 -17q25 0 32 3
q21 -25 21 -33zM712 706q-43 7 -60 11q-38 9 -60 22q-29 -68 -66 -138q-21 -34 -63 -106q-33 -57 -49 -105q-2 -3 -7 -9h-31q-17 3 -30 18q2 16 -29 55q-18 22 -39 48q-43 80 -123 218q-16 -13 -45.5 -53.5t-45.5 -50.5q4 -4 158 -147q97 -90 135 -163q17 -32 17 -96
q0 -28 -6.5 -83.5t-6.5 -47.5v-215h20q5 0 16 5.5t14 6.5q36 11 97 20v34q0 3 -10 51l2 4q2 4 2 8v106q0 89 -6 147q2 28 -7 87z" />
    <glyph glyph-name="z" unicode="z" horiz-adv-x="672" 
d="M656 562l-289 -396q5 -5 12 -5q-4 0 12 4q58 9 178 19q36 9 31 9q9 0 21 -10t12 -19q0 -17 -8 -74q-5 -36 -21 -141q0 -4 5 -46q1 -8 -13 -20q-8 0 -23.5 -3.5t-22.5 -3.5q-29 -2 -112 -8q-27 -2 -65 -10q3 -6 -4 -6q-4 0 -5 3.5t-5 3.5q-53 0 -157 -20l-135 -26
q-3 0 -9.5 3.5t-9.5 3.5q-5 0 -8 -3l-4 -3q-4 6 -9 17q-3 8 0 27q2 13 3 23v146q0 6 -3.5 17.5t-3.5 17.5q0 4 44 57q18 21 63 77q39 58 124 173q35 38 110 127q-79 14 -90 15h-51q-16 0 -84 -4l-85 -5q-12 -1 -28 7.5t-16 19.5q0 9 5 26.5t6 23.5q3 20 11 85q0 13 1 62
q0 5 9 11.5t15 6.5q5 0 17.5 -5t17.5 -5q3 1 11 6q15 0 200 13q30 2 141 12q44 9 115 19q5 1 19.5 7t18.5 6q29 0 38 -31q-3 -13 -5 -40q4 -40 26 -164zM590 598q0 48 -20 143h-30q-15 0 -46.5 -11.5t-46.5 -11.5l-329 -33q-18 0 -25 7q-18 -123 -17 -130v-11h46l6 -4
l16 1.5t35 2.5l50 3q22 1 54 -1q54 -9 43 -9q15 0 46 3.5t46 3.5q34 0 34 -28q0 -15 -10 -25q-53 -56 -143 -158q-56 -88 -117 -169q-26 -33 -93 -120v-182l198 29q27 3 100 13q64 10 100 10q3 0 10 -1.5t10 -1.5l40 10q4 33 14 98q9 60 9 64v51l-259 -33q-8 0 -17 9t-9 17
q0 15 79 119l80 105q26 34 141 207q5 8 5 33z" />
    <glyph glyph-name="glyph56" 
 />
    <glyph glyph-name="glyph57" 
 />
    <glyph glyph-name="glyph57" 
 />
    <glyph glyph-name="glyph58" 
 />
  </font>
</defs>
</svg>
